<?xml version="1.0" standalone="no"?>
<!DOCTYPE svg PUBLIC "-//W3C//DTD SVG 20010904//EN"
 "http://www.w3.org/TR/2001/REC-SVG-20010904/DTD/svg10.dtd">
<svg version="1.0" xmlns="http://www.w3.org/2000/svg"
 width="960.000000pt" height="960.000000pt" viewBox="0 0 960.000000 960.000000"
 preserveAspectRatio="xMidYMid meet">
<metadata>
Created by potrace 1.14, written by Peter Selinger 2001-2017
</metadata>
<g transform="translate(0.000000,960.000000) scale(0.100000,-0.100000)"
fill="#000000" stroke="none">
<path d="M4660 9564 c-30 -18 -62 -37 -70 -40 -8 -4 -59 -34 -112 -65 -54 -32
-98 -55 -98 -51 0 4 -4 2 -8 -3 -7 -12 -55 -41 -189 -116 -21 -12 -42 -25 -48
-29 -5 -4 -30 -19 -55 -32 -25 -14 -85 -49 -135 -78 -49 -29 -110 -64 -135
-78 -41 -23 -78 -45 -135 -79 -110 -65 -286 -163 -294 -163 -5 0 -11 -4 -13
-8 -1 -5 -23 -20 -48 -34 -58 -33 -528 -304 -645 -373 -49 -29 -106 -62 -125
-73 -19 -10 -129 -74 -243 -141 -115 -66 -210 -121 -212 -121 -3 0 -33 -18
-67 -40 -35 -22 -69 -40 -75 -40 -7 0 -13 -4 -13 -9 0 -5 -8 -11 -18 -15 -9
-3 -30 -14 -47 -23 -16 -10 -64 -38 -105 -62 -41 -24 -92 -54 -112 -67 -21
-13 -38 -21 -38 -17 0 5 -4 3 -8 -2 -6 -9 -109 -75 -117 -75 -2 0 -38 -20 -79
-45 -42 -25 -81 -45 -86 -45 -6 0 -10 -4 -10 -10 0 -5 -4 -10 -10 -10 -5 0
-70 -36 -146 -80 -75 -44 -140 -80 -145 -80 -5 0 -9 -4 -9 -10 0 -5 -4 -10 -9
-10 -6 0 -89 -46 -185 -102 l-176 -102 0 -2365 0 -2366 96 -55 c128 -73 148
-84 364 -210 102 -59 201 -117 220 -128 19 -11 91 -52 160 -92 69 -40 145 -84
170 -98 25 -14 62 -36 82 -49 21 -12 40 -23 43 -23 3 0 18 -9 33 -19 28 -19
445 -261 542 -314 30 -16 61 -35 69 -41 17 -13 50 -32 77 -45 18 -8 55 -30
174 -101 8 -4 92 -52 185 -106 94 -53 178 -104 188 -112 9 -8 17 -12 17 -8 0
4 15 -4 33 -18 19 -14 37 -23 40 -19 4 3 7 2 7 -4 0 -6 8 -13 18 -16 9 -4 35
-17 57 -31 22 -14 57 -34 77 -45 68 -37 83 -46 88 -52 3 -3 41 -25 85 -49 44
-24 82 -46 85 -50 3 -4 20 -13 38 -21 17 -8 32 -17 32 -21 0 -5 4 -8 9 -8 5 0
44 -20 85 -45 42 -25 81 -45 86 -45 6 0 10 -4 10 -10 0 -5 4 -10 9 -10 5 0 44
-20 85 -45 42 -25 81 -45 86 -45 6 0 10 -3 10 -7 0 -5 10 -13 23 -18 31 -15
111 -59 117 -65 3 -3 16 -11 29 -18 57 -33 99 -57 319 -185 l234 -135 100 59
c55 32 101 59 104 59 2 0 33 18 69 40 36 22 70 40 75 40 6 0 10 4 10 8 0 4 12
13 28 19 15 7 34 17 42 22 53 36 150 90 150 83 0 -4 4 -2 8 4 4 6 99 64 212
129 113 65 214 123 225 130 11 7 23 12 26 11 4 -1 15 6 25 15 19 16 88 56 404
238 96 55 180 104 185 108 6 5 26 17 45 26 19 10 49 26 65 36 87 53 328 191
333 191 3 0 13 6 21 14 9 7 48 30 86 51 39 21 76 43 84 49 7 6 31 20 52 31 60
31 193 108 199 114 3 4 30 19 60 35 30 16 62 35 71 42 8 8 21 14 27 14 6 0 17
6 24 12 12 12 35 26 136 79 23 13 42 26 42 31 0 4 9 8 20 8 11 0 20 4 20 10 0
5 11 12 25 16 14 3 25 10 25 16 0 5 4 7 9 4 5 -4 11 -2 13 2 1 5 37 27 78 50
41 24 82 47 90 52 30 20 316 184 345 198 17 9 32 18 35 21 3 3 14 11 25 17 68
37 120 67 179 103 38 22 69 41 71 41 2 0 38 20 79 45 42 25 81 45 86 45 6 0
10 4 10 9 0 5 13 14 29 19 25 9 51 52 31 52 -5 0 -5 13 0 28 4 16 4 36 -2 45
-5 10 -5 17 0 17 8 0 6 73 -3 98 -2 6 -1 12 3 12 9 0 7 54 -3 69 -3 6 -3 11 2
11 4 0 8 45 8 100 0 55 -4 100 -8 100 -5 0 -5 5 -2 11 11 16 12 69 3 75 -5 3
-5 10 -1 17 10 16 10 57 0 57 -4 0 -5 5 -1 11 10 16 11 149 1 149 -5 0 -5 5
-2 11 11 16 12 69 3 75 -5 3 -5 10 -1 17 9 14 11 57 3 57 -6 0 -5 40 0 48 5 7
3 49 -3 59 -4 6 -4 14 1 17 4 2 6 35 4 73 -3 80 -3 74 -1 139 1 28 -1 56 -5
62 -4 7 -3 12 2 12 8 0 6 73 -3 98 -2 6 -1 12 3 12 9 0 7 54 -3 69 -3 6 -3 11
2 11 4 0 8 45 8 100 0 55 -4 100 -8 100 -5 0 -5 5 -2 11 11 16 12 69 3 75 -5
3 -5 10 -1 17 9 15 10 57 1 57 -4 0 -4 10 0 23 9 26 8 69 -2 85 -3 6 -3 13 2
16 9 6 7 100 -4 117 -4 7 -3 10 2 6 10 -6 10 165 0 181 -3 6 -3 13 2 16 9 6 7
100 -4 117 -4 7 -3 10 2 7 5 -4 9 34 9 88 0 52 -4 94 -8 94 -4 0 -4 8 0 18 5
9 7 26 7 37 -1 11 -2 27 -3 36 -1 14 -70 15 -681 15 l-680 0 0 -25 c-1 -14 0
-89 1 -166 1 -124 1 -175 -2 -217 0 -7 0 -62 0 -123 0 -60 0 -117 0 -125 -1
-8 0 -64 1 -125 l1 -110 235 0 c156 1 234 -3 235 -10 0 -5 1 -322 2 -702 l2
-693 -35 -17 c-19 -10 -36 -21 -38 -26 -2 -4 -7 -7 -12 -7 -5 0 -45 -22 -90
-50 -45 -27 -83 -50 -85 -50 -3 0 -77 -43 -166 -95 -89 -52 -166 -95 -170 -95
-5 0 -9 -5 -9 -10 0 -6 -3 -9 -7 -8 -5 1 -19 -5 -33 -14 -14 -8 -187 -109
-385 -223 -453 -262 -658 -381 -698 -406 -18 -10 -39 -22 -47 -26 -8 -4 -90
-51 -182 -105 -92 -54 -169 -98 -172 -98 -3 0 -30 -16 -60 -35 -30 -19 -60
-35 -66 -35 -5 0 -10 -4 -10 -10 0 -5 -4 -10 -9 -10 -4 0 -60 -30 -122 -66
-63 -37 -130 -76 -149 -86 -96 -55 -125 -73 -128 -80 -2 -4 -12 -8 -22 -8 -10
0 -20 -4 -22 -8 -1 -4 -52 -36 -113 -71 -60 -34 -117 -66 -125 -72 -8 -5 -65
-38 -126 -73 l-112 -64 -138 80 c-77 44 -164 94 -194 111 -30 17 -57 33 -60
37 -3 3 -18 12 -35 20 -16 8 -41 22 -55 31 -14 9 -50 30 -80 46 -30 17 -110
62 -177 102 -67 39 -126 71 -132 71 -6 0 -11 4 -11 9 0 5 -10 13 -22 17 -13 4
-25 10 -28 13 -5 7 -225 134 -267 155 -13 6 -23 14 -23 19 0 4 -5 7 -11 7 -6
0 -39 17 -73 37 -33 21 -74 45 -91 54 -66 35 -100 54 -105 59 -3 3 -15 11 -27
18 -13 6 -33 18 -45 25 -13 6 -25 14 -28 17 -3 3 -23 14 -45 25 -22 11 -51 27
-65 36 -55 36 -85 53 -86 48 -1 -2 -10 3 -20 12 -11 9 -40 28 -66 43 -27 14
-69 38 -95 52 -27 15 -55 33 -64 40 -8 8 -19 14 -23 14 -6 0 -119 65 -221 127
-11 7 -27 16 -35 20 -8 4 -87 49 -174 100 -87 51 -160 93 -162 93 -1 0 -55 32
-120 70 -64 39 -119 70 -121 70 -2 0 -28 15 -58 34 -29 19 -56 32 -59 29 -3
-4 -6 -1 -6 5 0 7 -5 12 -11 12 -6 0 -29 13 -52 28 -23 16 -57 35 -74 43 -28
12 -33 19 -34 49 0 19 0 851 -1 1849 0 1513 2 1815 13 1826 11 10 306 183 494
290 22 13 96 56 165 95 143 83 297 172 355 205 22 13 86 50 143 84 57 34 108
61 113 61 5 0 9 4 9 9 0 5 8 11 18 14 9 4 42 21 73 39 205 119 265 153 277
156 6 2 12 8 12 13 0 5 4 9 10 9 8 0 91 46 200 110 163 96 337 196 345 199 5
2 17 9 25 16 8 7 40 25 70 41 30 16 61 35 68 41 7 7 20 13 28 13 8 0 14 5 14
10 0 6 5 10 10 10 6 0 44 20 84 45 41 25 77 45 79 45 3 0 34 18 68 40 35 22
71 43 79 47 8 4 111 63 228 130 l214 124 76 -45 c42 -24 91 -53 109 -63 18
-10 68 -39 112 -65 44 -27 85 -48 91 -48 5 0 10 -4 10 -10 0 -5 5 -10 10 -10
6 0 43 -20 83 -44 39 -24 133 -78 207 -121 165 -95 166 -95 320 -185 68 -40
139 -81 157 -91 18 -11 50 -29 71 -41 20 -12 60 -34 87 -50 54 -31 60 -34 152
-90 34 -21 65 -38 67 -38 2 0 50 -27 106 -60 56 -33 106 -60 111 -60 5 0 9 -3
9 -7 0 -5 10 -13 23 -19 33 -15 111 -58 117 -64 3 -3 16 -11 30 -19 148 -85
210 -121 245 -142 17 -10 41 -24 55 -32 46 -25 599 -345 670 -387 8 -5 44 -26
80 -47 36 -21 79 -45 95 -55 17 -10 45 -25 63 -34 17 -9 32 -24 33 -33 0 -9 2
-212 2 -451 l2 -435 443 -1 c400 -1 442 0 443 15 1 9 0 50 0 91 -1 41 -1 80
-2 85 0 6 1 33 2 61 1 28 -1 56 -5 62 -4 7 -3 12 2 12 8 0 6 73 -3 98 -2 6 -1
12 3 12 9 0 7 54 -3 69 -3 6 -3 11 2 11 4 0 8 45 8 100 0 55 -4 100 -8 100 -5
0 -5 5 -2 11 11 16 12 69 3 75 -5 3 -5 10 -1 17 9 14 11 57 3 57 -6 0 -5 40 0
48 5 7 3 49 -3 59 -4 6 -4 14 1 17 4 2 6 35 4 73 -3 80 -3 74 -1 139 1 28 -1
56 -5 62 -4 7 -4 12 1 12 12 0 9 113 -3 127 -7 7 -29 22 -50 33 -22 12 -46 25
-54 30 -66 40 -153 90 -157 90 -2 0 -27 15 -56 33 -29 18 -65 40 -82 49 -16 8
-124 71 -240 138 -115 68 -235 136 -265 153 -30 16 -61 35 -69 41 -16 12 -44
29 -86 50 -16 8 -51 28 -77 43 -167 100 -261 153 -269 153 -5 0 -9 5 -9 10 0
6 -4 10 -10 10 -5 0 -33 14 -62 31 -59 35 -101 60 -168 97 -52 29 -107 62
-135 80 -11 6 -27 15 -35 19 -8 4 -55 31 -103 60 -48 29 -90 53 -92 53 -3 0
-34 18 -70 40 -36 22 -70 40 -75 40 -6 0 -10 5 -10 10 0 6 -4 10 -9 10 -4 0
-45 21 -90 48 -45 26 -94 53 -109 61 -15 8 -29 17 -32 20 -4 5 -26 18 -115 65
-11 6 -22 13 -25 16 -4 4 -29 18 -115 64 -11 6 -22 13 -25 16 -7 7 -42 29 -60
37 -8 4 -48 26 -88 50 -40 24 -77 43 -82 43 -6 0 -10 3 -10 8 0 4 -15 13 -32
21 -18 8 -35 17 -38 21 -5 5 -45 29 -170 98 -25 14 -56 32 -70 42 -14 9 -68
41 -120 71 -52 29 -108 62 -125 72 -16 10 -38 20 -47 23 -10 4 -18 10 -18 15
0 5 -5 9 -11 9 -6 0 -48 22 -93 49 -44 27 -108 64 -141 82 -33 18 -62 36 -65
40 -3 4 -17 13 -30 18 -14 6 -32 15 -40 21 -28 18 -138 80 -142 79 -2 0 -28
-16 -58 -35z"/>
<path d="M2995 6655 c-49 -30 -96 -54 -102 -55 -7 0 -13 -3 -13 -7 0 -5 -10
-13 -23 -18 -31 -15 -111 -59 -117 -65 -5 -5 -16 -12 -99 -58 -25 -14 -74 -43
-109 -64 -34 -21 -64 -38 -67 -38 -4 0 -119 -67 -155 -90 -8 -6 -25 -15 -37
-22 -21 -10 -12 -18 125 -96 81 -46 158 -92 172 -100 14 -9 28 -15 33 -14 4 1
7 -3 7 -8 0 -6 5 -10 10 -10 6 0 31 -13 57 -29 l47 -29 1 -1264 c0 -731 -3
-1268 -8 -1275 -6 -8 -6 -13 -1 -13 5 0 9 -33 8 -74 -1 -41 1 -78 5 -84 5 -8
137 -92 145 -92 3 0 378 -218 431 -251 17 -10 41 -24 55 -31 14 -7 27 -15 30
-18 3 -3 19 -12 35 -21 17 -8 51 -28 78 -43 l47 -28 0 1357 0 1356 68 -37 c37
-20 84 -48 104 -61 21 -12 40 -23 42 -23 3 0 41 -22 86 -50 45 -27 83 -50 86
-50 2 0 41 -22 86 -49 112 -66 386 -225 434 -251 21 -12 75 -44 119 -70 44
-27 96 -56 116 -65 35 -17 37 -17 77 9 23 14 44 26 46 26 5 0 95 53 268 156
31 19 61 34 67 34 6 0 11 4 11 9 0 5 8 11 18 14 9 4 37 18 62 33 171 101 213
124 221 124 5 0 9 4 9 8 0 4 15 15 33 23 17 9 99 55 180 102 82 48 152 87 157
87 4 0 13 7 20 15 7 8 16 15 21 15 5 0 9 -577 9 -1282 0 -706 0 -1316 0 -1356
l0 -73 43 24 c84 48 218 125 237 137 15 9 74 44 165 95 28 15 79 45 114 67 34
21 67 38 72 38 5 0 9 5 9 12 0 6 3 8 6 5 4 -3 18 2 32 13 13 11 28 17 33 14 5
-3 9 -1 9 4 0 5 21 19 46 32 25 13 48 29 52 34 4 6 7 619 7 1363 1 744 3 1354
5 1357 7 6 295 174 350 203 25 14 62 35 82 47 l38 22 -104 62 c-57 34 -109 62
-115 62 -6 0 -11 4 -11 9 0 5 -8 11 -17 14 -10 4 -36 17 -58 30 -59 36 -213
126 -265 155 -25 14 -57 33 -72 43 -14 11 -33 19 -42 19 -9 0 -16 3 -16 8 0 4
-17 16 -37 27 -21 11 -40 22 -43 25 -3 3 -15 11 -28 18 -22 12 -49 2 -137 -51
-11 -7 -42 -26 -70 -43 -27 -16 -57 -33 -65 -38 -8 -4 -24 -12 -35 -19 -11 -7
-52 -30 -90 -52 -39 -22 -79 -45 -90 -52 -11 -7 -29 -17 -40 -22 -11 -6 -38
-22 -60 -36 -22 -14 -47 -28 -55 -32 -8 -4 -62 -35 -120 -69 -143 -84 -416
-242 -465 -269 -114 -64 -140 -79 -145 -84 -3 -3 -31 -19 -62 -36 -32 -16 -58
-33 -58 -37 0 -5 -5 -8 -11 -8 -6 0 -41 -18 -78 -40 -37 -22 -72 -40 -78 -40
-5 0 -72 36 -147 80 -75 44 -141 80 -146 80 -6 0 -10 5 -10 10 0 6 -4 10 -9
10 -5 0 -44 20 -85 45 -42 25 -79 45 -83 45 -4 0 -14 6 -22 14 -9 8 -38 26
-66 41 -27 14 -63 35 -80 46 -16 10 -37 22 -45 26 -8 4 -37 20 -65 36 -27 17
-63 37 -80 47 -150 85 -321 185 -325 190 -3 3 -21 13 -40 22 -37 19 -77 42
-185 107 -37 23 -69 41 -71 41 -3 0 -21 11 -42 23 -37 24 -131 77 -135 77 -1
0 -42 -25 -92 -55z"/>
</g>
</svg>
