<svg width="153" height="57" viewBox="0 0 153 57" fill="none" xmlns="http://www.w3.org/2000/svg"><path d="M3.025 54.272V47.34h2.457c.483 0 .94.062 1.37.185.431.118.836.307 1.214.568.379.255.68.617.901 1.087.229.463.343 1.005.343 1.625 0 .58-.114 1.1-.343 1.556a2.874 2.874 0 01-.9 1.097c-.373.267-.78.47-1.224.607a4.525 4.525 0 01-1.361.206H3.025zm1.233-1.077h1.028c.268 0 .522-.023.764-.069.248-.046.493-.124.734-.235.242-.117.447-.26.617-.43.176-.177.316-.405.42-.686.112-.287.167-.61.167-.969 0-1.605-.9-2.408-2.702-2.408H4.258v4.797zm11.764-5.855v4.386c0 .822-.264 1.482-.793 1.978-.522.496-1.188.744-1.997.744-.81 0-1.478-.248-2.007-.744-.522-.496-.783-1.156-.783-1.978V47.34h1.234v4.337c0 .464.124.858.372 1.185.248.32.642.48 1.184.48.542 0 .937-.16 1.185-.48.248-.327.372-.721.372-1.185V47.34h1.233zm1.467 6.931v-6.93h2.702c.588 0 1.087.143 1.498.43.418.287.626.725.626 1.312 0 .379-.107.698-.323.96-.215.26-.509.447-.88.557v.02c.45.059.812.232 1.086.519.274.287.411.659.411 1.116 0 .359-.075.675-.225.95a1.578 1.578 0 01-.597.626 3.02 3.02 0 01-.832.333 4.16 4.16 0 01-.97.108H17.49zm1.234-5.912v1.8h1.096c.411 0 .725-.08.94-.244.215-.163.323-.395.323-.695 0-.307-.111-.525-.333-.656-.222-.137-.568-.205-1.038-.205h-.988zm0 2.858v2.017h1.106c1.031 0 1.547-.346 1.547-1.038 0-.352-.121-.604-.363-.754-.241-.15-.62-.225-1.135-.225h-1.155zm4.263 3.055L26 47.34h1.067l2.986 6.93h-1.41l-.646-1.585h-3.006l-.626 1.586h-1.38zm2.427-2.644h2.154L26.5 48.81l-1.087 2.82zm5.326 2.644V47.34h1.234v6.93h-1.234zm22.365 0V47.34h1.929l1.801 4.924h.03l1.781-4.925h1.938v6.931H59.36V48.7h-.02l-2.105 5.57h-.861l-2.075-5.57h-.02v5.57h-1.175zm9.006 0V47.34h1.233v6.93H62.11zm2.763 0V47.34h1.233v5.834h2.947v1.097h-4.18zm4.158 0l3.015-6.931h1.067l2.986 6.93h-1.41l-.646-1.585h-3.006l-.626 1.586h-1.38zm2.427-2.644h2.154l-1.067-2.819-1.087 2.82zm5.326 2.644V47.34h1.635l3.221 5.188h.02V47.34h1.233v6.931h-1.566l-3.29-5.354h-.02v5.355h-1.233zm27.094 0V47.34h1.928l1.802 4.924h.029l1.782-4.925h1.938v6.931h-1.224V48.7h-.019l-2.105 5.57h-.861l-2.076-5.57h-.019v5.57h-1.175zm8.673-3.486c0-1.096.345-1.974 1.037-2.633.699-.66 1.589-.989 2.673-.989 1.096 0 1.994.33 2.692.99.698.658 1.047 1.536 1.047 2.632 0 1.077-.352 1.958-1.057 2.644-.698.678-1.592 1.018-2.682 1.018-1.077 0-1.965-.34-2.663-1.018-.698-.686-1.047-1.567-1.047-2.644zm1.341 0c0 .744.222 1.358.665 1.84.444.477 1.015.716 1.714.716.704 0 1.279-.239 1.722-.715.444-.483.666-1.097.666-1.84 0-.725-.222-1.329-.666-1.812-.437-.483-1.011-.724-1.722-.724-.705 0-1.28.241-1.723.724-.438.483-.656 1.087-.656 1.811zm11.636-2.878l-.803.881a1.399 1.399 0 00-.558-.43 1.659 1.659 0 00-.715-.167c-.319 0-.603.082-.851.245-.248.157-.372.392-.372.705 0 .156.026.29.078.401a.824.824 0 00.294.284c.143.085.277.15.401.196.124.045.307.107.548.186.229.072.415.134.558.186.15.052.327.137.529.254.209.111.372.232.489.363.124.13.229.303.314.518.091.21.137.444.137.705 0 .712-.242 1.26-.725 1.645-.476.378-1.077.568-1.801.568-.463 0-.91-.085-1.341-.255a2.704 2.704 0 01-1.038-.734l.881-.822c.17.228.395.414.676.558a1.9 1.9 0 00.842.205c.332 0 .623-.085.871-.254.254-.17.382-.428.382-.774a.944.944 0 00-.049-.313.604.604 0 00-.186-.264 2.277 2.277 0 00-.225-.186 1.285 1.285 0 00-.353-.167c-.163-.065-.28-.11-.352-.137a10.694 10.694 0 00-.431-.137 4.83 4.83 0 01-.636-.245 3.26 3.26 0 01-.549-.342 1.47 1.47 0 01-.42-.568 2.097 2.097 0 01-.147-.813c0-.659.248-1.161.744-1.507.502-.352 1.099-.529 1.791-.529.366 0 .728.066 1.087.196.365.124.675.307.93.548zm7.227.314l-.94.744a1.543 1.543 0 00-.695-.529 2.202 2.202 0 00-.881-.186c-.705 0-1.283.241-1.733.724-.444.483-.666 1.087-.666 1.811 0 .758.212 1.374.637 1.85.43.47 1.001.706 1.713.706.731 0 1.292-.268 1.684-.803l.988.695c-.646.81-1.54 1.214-2.682 1.214-1.083 0-1.971-.34-2.663-1.018-.692-.686-1.037-1.567-1.037-2.644 0-1.09.352-1.964 1.057-2.623.711-.666 1.612-.999 2.702-.999.483 0 .956.092 1.419.274.47.177.836.438 1.097.784zm.426 2.564c0-1.096.346-1.974 1.038-2.633.698-.66 1.589-.989 2.672-.989 1.097 0 1.994.33 2.692.99.699.658 1.048 1.536 1.048 2.632 0 1.077-.353 1.958-1.057 2.644-.699.678-1.593 1.018-2.683 1.018-1.077 0-1.964-.34-2.662-1.018-.699-.686-1.048-1.567-1.048-2.644zm1.341 0c0 .744.222 1.358.666 1.84.444.477 1.015.716 1.713.716.705 0 1.279-.239 1.723-.715.444-.483.666-1.097.666-1.84 0-.725-.222-1.329-.666-1.812-.437-.483-1.012-.724-1.723-.724-.705 0-1.279.241-1.723.724-.437.483-.656 1.087-.656 1.811zm8.621 3.486l-2.026-6.931h1.351l1.341 5.09h.019l1.528-5.09h1.272l1.498 5.09h.02l1.37-5.09h1.312l-2.026 6.93h-1.195l-1.625-5.198h-.019l-1.625 5.199h-1.195zM0 19.017h6.483c2.451 0 4.802.977 6.536 2.717a9.294 9.294 0 012.707 6.56c0 2.46-.974 4.82-2.707 6.56a9.226 9.226 0 01-6.536 2.716H0V19.017zm6.483 14.739c3.1 0 5.224-2.456 5.224-5.462 0-3.007-2.107-5.463-5.224-5.463H4.167v10.925h2.316zm17.236-14.74h11.455v4.143h-7.288v3.133h5.73v4.03h-5.73v3.132h7.288v4.125H23.72V19.017zm29.523 9.278a9.52 9.52 0 012.768-6.715 9.452 9.452 0 016.684-2.79 9.18 9.18 0 014.15.861 9.215 9.215 0 013.326 2.635l-3.153 2.622c-1.118-1.438-2.342-2.062-4.323-2.062a5.438 5.438 0 00-3.71 1.674 5.477 5.477 0 000 7.575 5.438 5.438 0 003.71 1.675c1.537 0 2.656-.262 3.57-.913v-2.592H61.81l1.772-3.932H70.3v8.416c-1.85 2.093-4.454 3.032-7.606 3.032a9.452 9.452 0 01-6.678-2.784 9.522 9.522 0 01-2.774-6.702zm24.19 0c0-1.877.554-3.71 1.593-5.27a9.46 9.46 0 014.242-3.495 9.42 9.42 0 0110.3 2.057 9.518 9.518 0 012.049 10.338 9.479 9.479 0 01-3.481 4.257 9.427 9.427 0 01-5.251 1.6 9.452 9.452 0 01-6.679-2.785 9.522 9.522 0 01-2.773-6.702zm14.711 0a5.296 5.296 0 00-.973-2.886 5.266 5.266 0 00-2.398-1.866 5.246 5.246 0 00-5.675 1.26 5.29 5.29 0 00-1.06 5.735 5.279 5.279 0 001.94 2.341 5.25 5.25 0 002.907.878 5.286 5.286 0 003.771-1.624 5.324 5.324 0 001.488-3.838zm12.025-9.277h4.167v14.42h7.188v4.142h-11.355V19.017zm18.695 0h4.167v14.42h7.188v4.142h-11.355V19.017zm18.695 0H153v4.142h-7.275v3.133h5.729v4.03h-5.729v3.132H153v4.125h-11.442V19.017zM30.716 0l4.44 4.47L39.594 0v9.036H37.59v-4.37L35.157 7.11l-2.434-2.442v4.37h-2.007V0zm22.753 0l4.388 9.036H55.75l-.64-1.385h-3.283l-.64 1.385H49.08L53.469 0zm.84 6.017l-.84-1.861-.84 1.861h1.68zm15.064-.603h-.022v3.622h-2.007V.101h3.37a2.646 2.646 0 011.678.631 2.663 2.663 0 01.596 3.334 2.655 2.655 0 01-1.356 1.178l2.896 3.788h-2.395l-2.76-3.618zm1.106-1.7a.868.868 0 00.856-.526.877.877 0 00.071-.348.899.899 0 00-.58-.818.89.89 0 00-.347-.056H69.35V3.74l1.128-.026zM83.949.1h2.003v8.936h-2.003V.101zm14.468 4.27v4.666H96.4V0l5.616 4.772V.1h2.008v9.036L98.417 4.37zM117.909 0l4.388 9.036h-2.107l-.64-1.385h-3.283l-.64 1.385h-2.107L117.909 0zm.84 6.017l-.84-1.861-.841 1.861h1.681z" fill="#000"/></svg>