<svg width="11" height="6" viewBox="0 0 11 6" fill="none" xmlns="http://www.w3.org/2000/svg">
<path d="M9.98639 0.0739383C10.0359 0.0266173 10.1033 -3.71455e-08 10.1737 -3.42322e-08C10.244 -3.13188e-08 10.3114 0.0266173 10.3609 0.0739383L10.9201 0.603858C10.9711 0.649218 11 0.712548 11 0.778831C11 0.845114 10.9711 0.908445 10.9201 0.953805L6.07229 5.54811C5.99817 5.61844 5.8976 5.658 5.79271 5.65809L5.65556 5.65809C5.55067 5.658 5.45011 5.61844 5.37598 5.54811L0.528202 0.953804C0.477204 0.908445 0.448276 0.845114 0.448276 0.778831C0.448276 0.712548 0.477204 0.649217 0.528202 0.603858L1.08736 0.0739379C1.13688 0.026617 1.2043 -4.05795e-07 1.27462 -4.02882e-07C1.34495 -3.99968e-07 1.41236 0.026617 1.46189 0.073938L5.72414 4.11332L9.98639 0.0739383Z" fill="black"/>
</svg>
