<svg width="153" height="57" viewBox="0 0 153 57" fill="none" xmlns="http://www.w3.org/2000/svg">
<path d="M3.02489 54.2715V47.3405H5.48204C5.96499 47.3405 6.42183 47.4025 6.85257 47.5265C7.28331 47.644 7.68794 47.8333 8.06647 48.0943C8.44499 48.3489 8.7452 48.7111 8.9671 49.181C9.19552 49.6443 9.30973 50.186 9.30973 50.806C9.30973 51.3869 9.19552 51.9057 8.9671 52.3625C8.7452 52.8194 8.44499 53.1849 8.06647 53.459C7.69447 53.7265 7.28657 53.9289 6.84278 54.0659C6.40552 54.203 5.95194 54.2715 5.48204 54.2715H3.02489ZM4.25836 53.1946H5.28626C5.55383 53.1946 5.80836 53.1718 6.04983 53.1261C6.29783 53.0804 6.54257 53.0021 6.78404 52.8912C7.02552 52.7737 7.2311 52.6301 7.40078 52.4604C7.57699 52.2842 7.71731 52.0558 7.82173 51.7752C7.93268 51.488 7.98815 51.165 7.98815 50.806C7.98815 49.2005 7.08752 48.3978 5.28626 48.3978H4.25836V53.1946ZM16.0221 47.3405V51.7262C16.0221 52.5485 15.7578 53.2077 15.2291 53.7037C14.707 54.1997 14.0414 54.4477 13.2321 54.4477C12.4228 54.4477 11.7539 54.1997 11.2253 53.7037C10.7031 53.2077 10.4421 52.5485 10.4421 51.7262V47.3405H11.6756V51.6773C11.6756 52.1406 11.7996 52.5355 12.0476 52.8618C12.2956 53.1816 12.6904 53.3415 13.2321 53.3415C13.7738 53.3415 14.1686 53.1816 14.4166 52.8618C14.6646 52.5355 14.7886 52.1406 14.7886 51.6773V47.3405H16.0221ZM17.4892 54.2715V47.3405H20.1911C20.7785 47.3405 21.2777 47.4841 21.6889 47.7713C22.1066 48.0584 22.3154 48.4957 22.3154 49.0831C22.3154 49.4616 22.2077 49.7814 21.9924 50.0424C21.777 50.3035 21.4833 50.4895 21.1113 50.6004V50.62C21.5616 50.6787 21.9238 50.8517 22.198 51.1389C22.4721 51.426 22.6091 51.798 22.6091 52.2549C22.6091 52.6138 22.5341 52.9303 22.384 53.2044C22.2404 53.472 22.0413 53.6809 21.7868 53.831C21.5323 53.9811 21.2549 54.092 20.9547 54.1638C20.6545 54.2356 20.3314 54.2715 19.9855 54.2715H17.4892ZM18.7227 48.3586V50.1599H19.8191C20.2303 50.1599 20.5435 50.0783 20.7589 49.9152C20.9743 49.752 21.082 49.5203 21.082 49.2201C21.082 48.9134 20.971 48.6947 20.7491 48.5642C20.5272 48.4272 20.1813 48.3586 19.7114 48.3586H18.7227ZM18.7227 51.2172V53.2338H19.8289C20.8601 53.2338 21.3756 52.8879 21.3756 52.1961C21.3756 51.8437 21.2549 51.5924 21.0134 51.4423C20.772 51.2922 20.3934 51.2172 19.8778 51.2172H18.7227ZM22.9856 54.2715L26.0008 47.3405H27.0678L30.0536 54.2715H28.6439L27.9978 52.6856H24.9925L24.3659 54.2715H22.9856ZM25.4134 51.6283H27.5671L26.5 48.809L25.4134 51.6283ZM30.7394 54.2715V47.3405H31.9729V54.2715H30.7394Z" fill="black"/>
<path d="M53.1042 54.2715V47.3405H55.0328L56.834 52.2646H56.8634L58.6451 47.3405H60.5834V54.2715H59.3597V48.7013H59.3401L57.2354 54.2715H56.3739L54.2986 48.7013H54.279V54.2715H53.1042ZM62.1098 54.2715V47.3405H63.3433V54.2715H62.1098ZM64.8726 54.2715V47.3405H66.1061V53.1751H69.0528V54.2715H64.8726ZM69.0306 54.2715L72.0458 47.3405H73.1129L76.0986 54.2715H74.689L74.0429 52.6856H71.0375L70.411 54.2715H69.0306ZM71.4584 51.6283H73.6121L72.5451 48.809L71.4584 51.6283ZM76.7844 54.2715V47.3405H78.4193L81.64 52.529H81.6596V47.3405H82.8931V54.2715H81.3268L78.0375 48.9166H78.0179V54.2715H76.7844Z" fill="black"/>
<path d="M103.878 54.2715V47.3405H105.806L107.608 52.2646H107.637L109.419 47.3405H111.357V54.2715H110.133V48.7013H110.114L108.009 54.2715H107.148L105.072 48.7013H105.053V54.2715H103.878ZM112.551 50.7864C112.551 49.69 112.896 48.8122 113.588 48.1531C114.287 47.4939 115.177 47.1643 116.261 47.1643C117.357 47.1643 118.255 47.4939 118.953 48.1531C119.651 48.8122 120 49.69 120 50.7864C120 51.8633 119.648 52.7443 118.943 53.4296C118.245 54.1083 117.351 54.4477 116.261 54.4477C115.184 54.4477 114.296 54.1083 113.598 53.4296C112.9 52.7443 112.551 51.8633 112.551 50.7864ZM113.892 50.7864C113.892 51.5304 114.114 52.1439 114.557 52.6269C115.001 53.1033 115.572 53.3415 116.271 53.3415C116.975 53.3415 117.55 53.1033 117.993 52.6269C118.437 52.1439 118.659 51.5304 118.659 50.7864C118.659 50.062 118.437 49.4583 117.993 48.9754C117.556 48.4924 116.982 48.251 116.271 48.251C115.566 48.251 114.991 48.4924 114.548 48.9754C114.11 49.4583 113.892 50.062 113.892 50.7864ZM125.528 47.9083L124.725 48.7894C124.595 48.6132 124.409 48.4696 124.167 48.3586C123.932 48.2477 123.694 48.1922 123.452 48.1922C123.133 48.1922 122.849 48.2738 122.601 48.437C122.353 48.5936 122.229 48.8285 122.229 49.1418C122.229 49.2984 122.255 49.4322 122.307 49.5432C122.366 49.6476 122.464 49.7422 122.601 49.8271C122.744 49.9119 122.878 49.9772 123.002 50.0229C123.126 50.0685 123.309 50.1305 123.55 50.2089C123.779 50.2806 123.965 50.3426 124.108 50.3949C124.258 50.4471 124.435 50.5319 124.637 50.6494C124.846 50.7603 125.009 50.8811 125.126 51.0116C125.25 51.1421 125.355 51.3151 125.44 51.5304C125.531 51.7393 125.577 51.9742 125.577 52.2353C125.577 52.9466 125.335 53.4949 124.852 53.8799C124.376 54.2584 123.775 54.4477 123.051 54.4477C122.588 54.4477 122.141 54.3629 121.71 54.1932C121.286 54.017 120.94 53.7722 120.672 53.459L121.553 52.6366C121.723 52.8651 121.948 53.0511 122.229 53.1946C122.509 53.3317 122.79 53.4002 123.071 53.4002C123.403 53.4002 123.694 53.3154 123.942 53.1457C124.196 52.976 124.324 52.7182 124.324 52.3723C124.324 52.2549 124.307 52.1504 124.275 52.0591C124.242 51.9612 124.18 51.8731 124.089 51.7947C124.004 51.7164 123.929 51.6544 123.864 51.6087C123.798 51.5565 123.681 51.5011 123.511 51.4423C123.348 51.3771 123.231 51.3314 123.159 51.3053C123.087 51.2792 122.943 51.2335 122.728 51.1682C122.48 51.0899 122.268 51.0083 122.092 50.9235C121.915 50.8386 121.733 50.7244 121.543 50.5809C121.361 50.4307 121.22 50.2415 121.123 50.0131C121.025 49.7781 120.976 49.5073 120.976 49.2005C120.976 48.5414 121.224 48.0389 121.72 47.693C122.222 47.3405 122.819 47.1643 123.511 47.1643C123.877 47.1643 124.239 47.2296 124.598 47.3601C124.963 47.4841 125.273 47.6669 125.528 47.9083ZM132.755 48.2216L131.815 48.9656C131.645 48.7306 131.413 48.5544 131.12 48.437C130.833 48.313 130.539 48.251 130.239 48.251C129.534 48.251 128.956 48.4924 128.506 48.9754C128.062 49.4583 127.84 50.062 127.84 50.7864C127.84 51.5435 128.052 52.1602 128.477 52.6366C128.907 53.1065 129.478 53.3415 130.19 53.3415C130.921 53.3415 131.482 53.0739 131.874 52.5387L132.862 53.2338C132.216 54.0431 131.322 54.4477 130.18 54.4477C129.097 54.4477 128.209 54.1083 127.517 53.4296C126.825 52.7443 126.48 51.8633 126.48 50.7864C126.48 49.6965 126.832 48.822 127.537 48.1629C128.248 47.4972 129.149 47.1643 130.239 47.1643C130.722 47.1643 131.195 47.2557 131.658 47.4384C132.128 47.6146 132.494 47.8757 132.755 48.2216ZM133.181 50.7864C133.181 49.69 133.527 48.8122 134.219 48.1531C134.917 47.4939 135.808 47.1643 136.891 47.1643C137.988 47.1643 138.885 47.4939 139.583 48.1531C140.282 48.8122 140.631 49.69 140.631 50.7864C140.631 51.8633 140.278 52.7443 139.574 53.4296C138.875 54.1083 137.981 54.4477 136.891 54.4477C135.814 54.4477 134.927 54.1083 134.229 53.4296C133.53 52.7443 133.181 51.8633 133.181 50.7864ZM134.522 50.7864C134.522 51.5304 134.744 52.1439 135.188 52.6269C135.632 53.1033 136.203 53.3415 136.901 53.3415C137.606 53.3415 138.18 53.1033 138.624 52.6269C139.068 52.1439 139.29 51.5304 139.29 50.7864C139.29 50.062 139.068 49.4583 138.624 48.9754C138.187 48.4924 137.612 48.251 136.901 48.251C136.196 48.251 135.622 48.4924 135.178 48.9754C134.741 49.4583 134.522 50.062 134.522 50.7864ZM143.143 54.2715L141.117 47.3405H142.468L143.809 52.4311H143.828L145.356 47.3405H146.628L148.126 52.4311H148.146L149.516 47.3405H150.828L148.802 54.2715H147.607L145.982 49.0733H145.963L144.338 54.2715H143.143Z" fill="black"/>
<path d="M0 19.0168H6.48276C8.93416 19.0168 11.2852 19.9942 13.0186 21.7339C14.752 23.4736 15.7258 25.8332 15.7258 28.2936C15.7258 30.7539 14.752 33.1135 13.0186 34.8533C11.2852 36.593 8.93416 37.5704 6.48276 37.5704H0V19.0168ZM6.48276 33.7557C9.58264 33.7557 11.7073 31.2999 11.7073 28.2936C11.7073 25.2873 9.60005 22.8315 6.48276 22.8315H4.16655V33.7557H6.48276ZM23.7193 19.0168H35.1741V23.1592H27.8859V26.2923H33.6154V30.3211H27.8859V33.4542H35.1741V37.5791H23.7193V19.0168ZM53.2422 28.2936C53.2422 25.776 54.2375 23.3612 56.0096 21.5794C57.7817 19.7975 60.1858 18.7942 62.6942 18.7896C64.1252 18.7489 65.546 19.0437 66.8437 19.6505C68.1413 20.2574 69.2801 21.1595 70.1696 22.2853L67.0175 24.9071C65.8986 23.4695 64.6752 22.8446 62.6942 22.8446C61.2885 22.9011 59.9591 23.5012 58.9844 24.5194C58.0097 25.5375 57.4654 26.8947 57.4654 28.3067C57.4654 29.7187 58.0097 31.0758 58.9844 32.094C59.9591 33.1122 61.2885 33.7123 62.6942 33.7688C64.2311 33.7688 65.35 33.5066 66.2643 32.8555V30.2643H61.8104L63.5824 26.3316H70.3002V34.7476C68.4499 36.8406 65.8463 37.7801 62.6942 37.7801C60.1888 37.7755 57.7873 36.7745 56.0157 34.9965C54.2441 33.2184 53.2468 30.8082 53.2422 28.2936ZM77.4317 28.2936C77.4317 26.4173 77.9861 24.5832 79.0247 23.0231C80.0633 21.4631 81.5395 20.2472 83.2666 19.5292C84.9937 18.8111 86.8942 18.6233 88.7277 18.9893C90.5612 19.3554 92.2454 20.2589 93.5673 21.5856C94.8892 22.9123 95.7894 24.6026 96.1541 26.4429C96.5189 28.2831 96.3317 30.1905 95.6163 31.9239C94.9009 33.6574 93.6894 35.139 92.135 36.1814C90.5806 37.2238 88.7532 37.7801 86.8837 37.7801C84.3783 37.7755 81.9768 36.7745 80.2052 34.9965C78.4336 33.2184 77.4363 30.8082 77.4317 28.2936ZM92.1431 28.2936C92.108 27.2569 91.7697 26.2535 91.1702 25.4085C90.5707 24.5635 89.7367 23.9144 88.7721 23.542C87.8075 23.1696 86.755 23.0905 85.7458 23.3144C84.7367 23.5384 83.8156 24.0556 83.0974 24.8015C82.3792 25.5474 81.8956 26.489 81.707 27.5089C81.5185 28.5288 81.6333 29.5818 82.037 30.5367C82.4408 31.4915 83.1157 32.306 83.9776 32.8784C84.8395 33.4508 85.8502 33.7559 86.8837 33.7557C87.5883 33.7501 88.2848 33.6037 88.9323 33.3249C89.5799 33.0462 90.1656 32.6407 90.6553 32.1321C91.1449 31.6236 91.5287 31.0222 91.7841 30.3632C92.0396 29.7041 92.1616 29.0005 92.1431 28.2936ZM104.168 19.0168H108.335V33.4367H115.523V37.5791H104.168V19.0168ZM122.863 19.0168H127.03V33.4367H134.218V37.5791H122.863V19.0168ZM141.558 19.0168H153V23.1592H145.725V26.2923H151.454V30.3211H145.725V33.4542H153V37.5791H141.558V19.0168ZM30.7158 0L35.1566 4.47017L39.5931 0V9.03647H37.5904V4.6668L35.1566 7.10945L32.7229 4.6668V9.03647H30.7158V0ZM53.4686 0L57.8572 9.03647H55.75L55.11 7.65128H51.8272L51.1872 9.03647H49.08L53.4686 0ZM54.3089 6.01703L53.4686 4.15555L52.6283 6.01703H54.3089ZM69.3729 5.41402H69.3511V9.03647H67.344V0.1005H70.7139C71.3295 0.109146 71.9229 0.332554 72.3923 0.732387C72.8618 1.13222 73.178 1.68355 73.2866 2.29179C73.3952 2.90004 73.2896 3.52726 72.9878 4.06586C72.6859 4.60446 72.2068 5.02086 71.6325 5.2436L74.5278 9.0321H72.1332L69.3729 5.41402ZM70.4787 3.71422C70.5978 3.722 70.7171 3.70516 70.8294 3.66474C70.9416 3.62431 71.0444 3.56117 71.1314 3.47923C71.2183 3.39729 71.2876 3.29829 71.3348 3.18838C71.3821 3.07847 71.4063 2.95999 71.4061 2.84028C71.4033 2.7215 71.377 2.60446 71.3287 2.49598C71.2804 2.3875 71.2111 2.28974 71.1248 2.20841C71.0385 2.12708 70.9369 2.06379 70.826 2.02223C70.7151 1.98067 70.597 1.96168 70.4787 1.96635H69.3511V3.74043L70.4787 3.71422ZM83.9493 0.1005H85.952V9.03647H83.9493V0.1005ZM98.4169 4.36967V9.03647H96.4011V0L102.017 4.77167V0.1005H104.025V9.13697L98.4169 4.36967ZM117.909 0L122.297 9.03647H120.19L119.55 7.65128H116.267L115.627 9.03647H113.52L117.909 0ZM118.749 6.01703L117.909 4.15555L117.068 6.01703H118.749Z" fill="black"/>
</svg>
