<svg width="22" height="22" viewBox="0 0 22 22" fill="none" xmlns="http://www.w3.org/2000/svg">
<path d="M21.391 20.2635L15.969 14.9283C17.3889 13.3857 18.2613 11.3456 18.2613 9.10073C18.2606 4.29846 14.305 0.406006 9.42522 0.406006C4.54541 0.406006 0.589844 4.29846 0.589844 9.10073C0.589844 13.903 4.54541 17.7955 9.42522 17.7955C11.5336 17.7955 13.4674 17.0662 14.9864 15.8538L20.4294 21.2101C20.6946 21.4713 21.1252 21.4713 21.3904 21.2101C21.6562 20.9488 21.6562 20.5248 21.391 20.2635ZM9.42522 16.4577C5.29637 16.4577 1.94929 13.1639 1.94929 9.10073C1.94929 5.03757 5.29637 1.74374 9.42522 1.74374C13.5541 1.74374 16.9011 5.03757 16.9011 9.10073C16.9011 13.1639 13.5541 16.4577 9.42522 16.4577Z" fill="black"/>
</svg>
